<svg id="Layer_1" data-name="Layer 1" xmlns="http://www.w3.org/2000/svg"
     xmlns:xlink="http://www.w3.org/1999/xlink" viewBox="0 0 267.64 290">
    <defs>
        <style>.cls-1{fill:#fff;}.cls-2{fill:url(#linear-gradient);}</style>
        <linearGradient id="linear-gradient" x1="527.6" y1="354.8" x2="771.07" y2="354.8"
                        gradientUnits="userSpaceOnUse">
            <stop offset="0.23" stop-color="#ffffff"/>
            <stop offset="0.72" stop-color="#ffffff"/>
        </linearGradient>
    </defs>
    <path class="cls-2"
          d="M767.92,416.93V293.51a6.11,6.11,0,1,0-7.48-9.44L655.12,223.26a6.13,6.13,0,1,0-11,.75l-106.86,61.7a6,6,0,0,0-3-.83,6.11,6.11,0,0,0-1.63,12V416.53a6.12,6.12,0,0,0,1.15,12.13,6,6,0,0,0,3.94-1.47l106.48,61.48a6.11,6.11,0,0,0,12.21,0l105.72-61a6.11,6.11,0,0,0,5.85-10.7Zm-232.37-.21V297a6.12,6.12,0,0,0,3.74-2.55l18.84,10.88,20.4,11.78,8.63,5,5,2.9,19.32,11.15a6,6,0,0,0-.18,1.41,6.12,6.12,0,0,0,4.29,5.82v25.34a6.12,6.12,0,0,0-4.29,5.82,6,6,0,0,0,.45,2.28l-33,19h0l-2.67,1.54h0L538.69,419A6.12,6.12,0,0,0,535.55,416.72Zm113.18,25.9v40a6.08,6.08,0,0,0-3.86,3L539.41,424.77a5.91,5.91,0,0,0,.44-2.23,5.2,5.2,0,0,0-.07-.69l38.57-22.26L591.41,392l22.19-12.81a6,6,0,0,0,7.85-.14l22.76,14a6.1,6.1,0,0,0,4.52,5.05Zm0-56.34a6.15,6.15,0,0,0-4.13,3.53l-21.44-13.17a6.05,6.05,0,0,0-4.58-8.15v-25a6.14,6.14,0,0,0,3.06-1.56l22.49,13v0a6.1,6.1,0,0,0,4.61,5.91Zm0-37.2a6.1,6.1,0,0,0-3.76,2.85l-21.72-12.55a5.67,5.67,0,0,0,.18-3.13l21.82-12.34a6.07,6.07,0,0,0,3.48,2.38Zm0-115.24v80.63a6.11,6.11,0,0,0-4.61,5.91c0,.24,0,.48.07.71l-22.09,12.5a6.06,6.06,0,0,0-9.18-.17L584,316.7h0l-10.61-6.12-33.07-19.1c0-.16,0-.31,0-.47a6,6,0,0,0-.89-3.15l106.73-61.62a6.11,6.11,0,0,0,2.57.89Zm3,22.42V226.73a6.37,6.37,0,0,0,1.62-1l105.64,61a5.72,5.72,0,0,0-.21,1.5,6,6,0,0,0,.91,3.17l-37.58,21.69-2.67,1.55-32.65,18.84a6.07,6.07,0,0,0-8.5.41l-22-13.21a2.3,2.3,0,0,0,0-.26,6.11,6.11,0,0,0-4.6-5.91Zm0,70a6.09,6.09,0,0,0,3.68-2.72l21.45,12.89a5.77,5.77,0,0,0-.23,1.56,6.16,6.16,0,0,0,.12,1.22l-21.44,12.38a6.09,6.09,0,0,0-3.58-2.54Zm0,34.61a6.1,6.1,0,0,0,4.6-5.91c0-.14,0-.28,0-.42L678.15,342a6.08,6.08,0,0,0,3.76,2.08v24.41a6.07,6.07,0,0,0-4.68,8.56L655.9,389.84a6.13,6.13,0,0,0-4.13-3.56Zm3.86,124.76a6.11,6.11,0,0,0-3.86-3.05v-84.5a6.11,6.11,0,0,0,4.51-5l22.83-13.72a6,6,0,0,0,7.34,0l25.77,14.88L730,404.51l28.71,16.57a5.91,5.91,0,0,0-.11,1,6.08,6.08,0,0,0,1.09,3.47ZM764.94,337.92V416a1.9,1.9,0,0,0-.25,0,6.1,6.1,0,0,0-4.76,2.31L728,399.86l-3.39-1.95-.5-.29-2.66-1.54L688.38,377a6.08,6.08,0,0,0-3.49-8.23v-25a6,6,0,0,0,3.65-7.78L714,321.28l10.39-6,4.14-2.39,4.23-2.44L762,293.54a6,6,0,0,0,2.91.77Z"
          transform="translate(-515.51 -214.95)"/>
</svg>