<svg width="72" height="72" viewBox="0 0 72 72" fill="none" xmlns="http://www.w3.org/2000/svg">
<circle cx="36" cy="36" r="36" fill="#F3F3F4"/>
<path fill-rule="evenodd" clip-rule="evenodd" d="M24.1163 21.3613C22.3957 21.3613 21.0009 22.7561 21.0009 24.4767V28.1059C21.0009 29.8265 22.3957 31.2213 24.1163 31.2213H29.6282V51.5234C29.6282 53.244 31.0231 54.6388 32.7436 54.6388H36.3728C38.0934 54.6388 39.4882 53.244 39.4882 51.5234V28.1323C39.4883 28.1235 39.4883 28.1147 39.4883 28.1059V24.4767C39.4883 22.7561 38.0935 21.3613 36.3729 21.3613H32.7436H24.1163Z" fill="#0364FF"/>
<path d="M46.885 31.2213C49.6077 31.2213 51.815 29.0141 51.815 26.2913C51.815 23.5686 49.6077 21.3613 46.885 21.3613C44.1622 21.3613 41.955 23.5686 41.955 26.2913C41.955 29.0141 44.1622 31.2213 46.885 31.2213Z" fill="#0364FF"/>
</svg>
